<svg width="406" height="48" viewBox="0 0 406 48" fill="none" xmlns="http://www.w3.org/2000/svg">
<path d="M0.448 47V1.24H21.696V3.928H3.52V20.76H19.968V23.384H3.52V44.312H22.4V47H0.448ZM48.123 38.296L62.011 5.464H65.083L47.227 47.256H45.499L27.643 5.464H30.843L46.523 42.392C46.7363 41.752 47.2697 40.3867 48.123 38.296ZM73.555 47V5.464H92.947V8.024H76.499V23.128H91.347V25.624H76.499V44.312H93.587V47H73.555ZM105.368 47V5.208H106.776L134.04 36.568C135.021 37.6773 135.917 38.7867 136.728 39.896C137.581 40.9627 138.029 41.5173 138.072 41.56C137.986 40.536 137.944 38.5307 137.944 35.544V5.464H140.888V47.256H139.48L111.704 15.384L108.184 11.096C108.269 11.9493 108.312 13.9547 108.312 17.112V47H105.368ZM163.667 8.088H149.587V5.464H180.627V8.088H166.547V47H163.667V8.088Z" fill="#6634F2"/>
<path d="M204.729 44.76C210.745 44.76 215.566 43.1387 219.193 39.896C222.862 36.6107 224.697 31.6827 224.697 25.112C224.697 18.5413 222.628 13.3147 218.489 9.432C214.393 5.54933 209.316 3.608 203.257 3.608C199.374 3.608 196.004 3.71466 193.145 3.928V44.248C195.918 44.5893 199.78 44.76 204.729 44.76ZM203.257 0.791996C210.297 0.791996 216.185 2.98933 220.921 7.384C225.657 11.736 228.025 17.6667 228.025 25.176C228.025 28.9733 227.406 32.344 226.169 35.288C224.974 38.1893 223.31 40.5147 221.177 42.264C216.782 45.8053 211.3 47.576 204.729 47.576C200.42 47.576 195.534 47.3413 190.073 46.872V1.24C194.425 0.94133 198.82 0.791996 203.257 0.791996ZM241.493 47V5.464H260.885V8.024H244.437V23.128H259.285V25.624H244.437V44.312H261.525V47H241.493ZM281.689 7.256C279.385 7.256 277.508 7.81066 276.057 8.92C274.606 10.0293 273.881 11.5867 273.881 13.592C273.881 15.896 274.841 17.9653 276.761 19.8C278.126 21.1227 279.876 22.5307 282.009 24.024C284.185 25.4747 285.678 26.52 286.489 27.16C287.3 27.8 288.281 28.6747 289.433 29.784C291.524 31.8747 292.569 34.2853 292.569 37.016C292.569 40.5573 291.374 43.2453 288.985 45.08C286.638 46.872 283.332 47.768 279.065 47.768C274.841 47.768 271.3 46.6587 268.441 44.44L269.977 42.2C272.878 44.1627 275.95 45.144 279.193 45.144C282.436 45.144 284.953 44.4613 286.745 43.096C288.58 41.7307 289.497 39.8107 289.497 37.336C289.497 35.2027 288.58 33.24 286.745 31.448C285.465 30.168 283.737 28.7813 281.561 27.288C279.428 25.7947 277.934 24.728 277.081 24.088C276.228 23.4053 275.225 22.5093 274.073 21.4C271.897 19.224 270.809 16.7067 270.809 13.848C270.809 10.9893 271.812 8.74933 273.817 7.128C275.865 5.50667 278.681 4.696 282.265 4.696C285.849 4.696 289.07 5.4 291.929 6.808L290.841 9.176C288.196 7.896 285.145 7.256 281.689 7.256ZM304.368 47V5.464H307.312V47H304.368ZM340.024 7.448C335.288 7.448 331.299 9.26133 328.056 12.888C324.856 16.472 323.256 20.888 323.256 26.136C323.256 31.384 325.069 35.8427 328.696 39.512C332.323 43.1387 336.589 44.952 341.496 44.952C346.445 44.952 350.285 44.376 353.016 43.224V26.136H355.96V44.568C352.632 46.616 347.917 47.64 341.816 47.64C335.715 47.64 330.573 45.5707 326.392 41.432C322.211 37.2933 320.12 32.216 320.12 26.2C320.12 20.1413 321.997 15.064 325.752 10.968C329.549 6.872 334.435 4.824 340.408 4.824C345.229 4.824 349.944 5.57066 354.552 7.064L353.784 9.496C349.347 8.13066 344.76 7.448 340.024 7.448ZM369.93 47V5.208H371.338L398.602 36.568C399.583 37.6773 400.479 38.7867 401.29 39.896C402.143 40.9627 402.591 41.5173 402.634 41.56C402.549 40.536 402.506 38.5307 402.506 35.544V5.464H405.45V47.256H404.042L376.266 15.384L372.746 11.096C372.831 11.9493 372.874 13.9547 372.874 17.112V47H369.93Z" fill="black"/>
</svg>
